# xmcd
#
# Track frame offsets:
#	150
#	20240
#	36432
#	48752
#	64110
#	79287
#	100875
#	118362
#	133255
#	147852
#	154637
#	164512
#	174160
#	184082
#	198260
#
# Disc length: 2824 seconds
#
# Revision: 1
# Processed by: cddbd v1.4PL0 Copyright (c) Steve Scherf et al.
# Submitted via: audiograbber 1.80
#
DISCID=d50b060f
DTITLE=басикгс теякецйас - лиа бяадиа сто йемтяо нглеяылата
DYEAR=1900
DGENRE=
TTITLE0=йати цеммиетаи
TTITLE1=келоми стгм поятойакиа
TTITLE2=ои жикои
TTITLE3=йяоуафиеяопкоиа
TTITLE4=лиа леки лиа йемтяи
TTITLE5=ваяатси
TTITLE6=жеуцы циати
TTITLE7=сто адеио лоу пайето
TTITLE8=лиа еимаи г оусиа
TTITLE9=жтамеи ма л'ацапас
TTITLE10=еисаи то йати акко
TTITLE11=лг лоу кес циа та латиас тгс
TTITLE12=то немо еимаи пио цкуйо
TTITLE13=жтиане лоу ема йаже
TTITLE14=вояеье ацояи лоу
EXTD=
EXTT0=
EXTT1=
EXTT2=
EXTT3=
EXTT4=
EXTT5=
EXTT6=
EXTT7=
EXTT8=
EXTT9=
EXTT10=
EXTT11=
EXTT12=
EXTT13=
EXTT14=
PLAYORDER=
